<mxfile host="drawio-plugin" modified="2021-09-22T14:14:14.873Z" agent="5.0 (X11; Linux x86_64) AppleWebKit/537.36 (KHTML, like Gecko) Chrome/89.0.4389.114 Safari/537.36" etag="lcL5MFcLtg0dtvh20mVw" version="14.7.4" type="embed"><diagram id="G4t1x3i_cumIOjZ8GDXV" name="Page-1"><mxGraphModel dx="915" dy="830" grid="1" gridSize="10" guides="1" tooltips="1" connect="1" arrows="1" fold="1" page="1" pageScale="1" pageWidth="850" pageHeight="1100" math="0" shadow="0"><root><mxCell id="0"/><mxCell id="1" parent="0"/><mxCell id="4NMri5ObQx2eB0Vx6lmc-10" value="" style="edgeStyle=orthogonalEdgeStyle;rounded=0;orthogonalLoop=1;jettySize=auto;html=1;entryX=0;entryY=0.5;entryDx=0;entryDy=0;startArrow=classic;startFill=1;" parent="1" source="4NMri5ObQx2eB0Vx6lmc-1" target="4NMri5ObQx2eB0Vx6lmc-4" edge="1"><mxGeometry relative="1" as="geometry"/></mxCell><mxCell id="4NMri5ObQx2eB0Vx6lmc-1" value="Client" style="shape=umlActor;verticalLabelPosition=bottom;verticalAlign=top;html=1;outlineConnect=0;" parent="1" vertex="1"><mxGeometry x="40" y="40" width="30" height="60" as="geometry"/></mxCell><mxCell id="4NMri5ObQx2eB0Vx6lmc-13" value="Send message&lt;br&gt;Push message" style="edgeStyle=orthogonalEdgeStyle;rounded=0;orthogonalLoop=1;jettySize=auto;html=1;entryX=0;entryY=0.75;entryDx=0;entryDy=0;startArrow=classic;startFill=1;" parent="1" source="4NMri5ObQx2eB0Vx6lmc-3" target="4NMri5ObQx2eB0Vx6lmc-4" edge="1"><mxGeometry relative="1" as="geometry"/></mxCell><mxCell id="4NMri5ObQx2eB0Vx6lmc-3" value="Client" style="shape=umlActor;verticalLabelPosition=bottom;verticalAlign=top;html=1;outlineConnect=0;" parent="1" vertex="1"><mxGeometry x="40" y="150" width="30" height="60" as="geometry"/></mxCell><mxCell id="4NMri5ObQx2eB0Vx6lmc-4" value="&lt;font style=&quot;font-size: 12px&quot;&gt;Messaging&lt;/font&gt;" style="rounded=1;whiteSpace=wrap;html=1;gradientColor=#ffa500;fillColor=#ffcd28;strokeColor=#d79b00;" parent="1" vertex="1"><mxGeometry x="160" y="80" width="120" height="60" as="geometry"/></mxCell><mxCell id="QVO6qr5AluIkjkF2SAql-7" value="Update" style="edgeStyle=orthogonalEdgeStyle;rounded=0;orthogonalLoop=1;jettySize=auto;html=1;entryX=1;entryY=0.5;entryDx=0;entryDy=0;entryPerimeter=0;exitX=0.5;exitY=0;exitDx=0;exitDy=0;" parent="1" source="Gfm62hS2zhEuvZ2v64Gk-13" target="QVO6qr5AluIkjkF2SAql-2" edge="1"><mxGeometry relative="1" as="geometry"/></mxCell><mxCell id="Gfm62hS2zhEuvZ2v64Gk-13" value="Configurator" style="rounded=1;whiteSpace=wrap;html=1;gradientColor=#ffa500;fillColor=#ffcd28;strokeColor=#d79b00;" parent="1" vertex="1"><mxGeometry x="680" y="110" width="120" height="60" as="geometry"/></mxCell><mxCell id="QVO6qr5AluIkjkF2SAql-1" value="Push updates" style="endArrow=classic;html=1;exitX=0;exitY=0.5;exitDx=0;exitDy=0;entryX=1;entryY=0.5;entryDx=0;entryDy=0;exitPerimeter=0;" parent="1" source="QVO6qr5AluIkjkF2SAql-2" target="4NMri5ObQx2eB0Vx6lmc-4" edge="1"><mxGeometry width="50" height="50" relative="1" as="geometry"><mxPoint x="200" y="130" as="sourcePoint"/><mxPoint x="200" y="210" as="targetPoint"/></mxGeometry></mxCell><mxCell id="QVO6qr5AluIkjkF2SAql-2" value="Config DB" style="shape=cylinder3;whiteSpace=wrap;html=1;boundedLbl=1;backgroundOutline=1;size=15;gradientColor=#7ea6e0;fillColor=#dae8fc;strokeColor=#6c8ebf;" parent="1" vertex="1"><mxGeometry x="520" y="50" width="120" height="80" as="geometry"/></mxCell><mxCell id="zAgNuWyr5u-YzhFzlj54-2" style="edgeStyle=orthogonalEdgeStyle;rounded=0;orthogonalLoop=1;jettySize=auto;html=1;entryX=0.5;entryY=1;entryDx=0;entryDy=0;" parent="1" source="zAgNuWyr5u-YzhFzlj54-1" target="Gfm62hS2zhEuvZ2v64Gk-13" edge="1"><mxGeometry relative="1" as="geometry"><Array as="points"><mxPoint x="740" y="190"/><mxPoint x="740" y="190"/></Array></mxGeometry></mxCell><mxCell id="zAgNuWyr5u-YzhFzlj54-5" value="" style="edgeStyle=orthogonalEdgeStyle;rounded=0;orthogonalLoop=1;jettySize=auto;html=1;entryX=1;entryY=0.5;entryDx=0;entryDy=0;" parent="1" source="zAgNuWyr5u-YzhFzlj54-1" target="zAgNuWyr5u-YzhFzlj54-3" edge="1"><mxGeometry relative="1" as="geometry"><Array as="points"><mxPoint x="490" y="230"/><mxPoint x="490" y="230"/></Array></mxGeometry></mxCell><mxCell id="zAgNuWyr5u-YzhFzlj54-1" value="Deployment infrastructure" style="rounded=1;whiteSpace=wrap;html=1;gradientColor=#ea6b66;fillColor=#f8cecc;strokeColor=#b85450;" parent="1" vertex="1"><mxGeometry x="640" y="200" width="160" height="60" as="geometry"/></mxCell><mxCell id="zAgNuWyr5u-YzhFzlj54-3" value="Messaging&lt;br&gt;(idle/waiting)" style="rounded=1;whiteSpace=wrap;html=1;gradientColor=#ffa500;fillColor=#ffcd28;strokeColor=#d79b00;" parent="1" vertex="1"><mxGeometry x="160" y="200" width="120" height="60" as="geometry"/></mxCell><mxCell id="zAgNuWyr5u-YzhFzlj54-4" value="&lt;div&gt;Keep idle Messaging server instances ready for replacing dead ones&lt;/div&gt;" style="shape=note;whiteSpace=wrap;html=1;backgroundOutline=1;darkOpacity=0.05;align=left;gradientColor=#b3b3b3;fillColor=#f5f5f5;strokeColor=#666666;" parent="1" vertex="1"><mxGeometry x="160" y="270" width="230" height="30" as="geometry"/></mxCell><mxCell id="zAgNuWyr5u-YzhFzlj54-6" value="&lt;div&gt;&lt;span&gt;When an existing Messaging server is dead:&lt;/span&gt;&lt;/div&gt;&lt;div&gt;&lt;span&gt;- Deployment infrastructure notifies Configurator for the 2 Messaging servers - one declared dead and the new one&lt;/span&gt;&lt;/div&gt;&lt;div&gt;&lt;span&gt;- Configurator re-assigns partitions from the declared dead Messaging server to the new one&lt;/span&gt;&lt;/div&gt;&lt;div&gt;&lt;span&gt;- Clients start connecting to the new Messaging server&lt;/span&gt;&lt;/div&gt;" style="shape=note;whiteSpace=wrap;html=1;backgroundOutline=1;darkOpacity=0.05;align=left;gradientColor=#b3b3b3;fillColor=#f5f5f5;strokeColor=#666666;" parent="1" vertex="1"><mxGeometry x="440" y="270" width="360" height="90" as="geometry"/></mxCell><mxCell id="hnBhtKNH4Kam41gT7Syl-1" value="Push updates" style="endArrow=classic;html=1;exitX=0;exitY=0;exitDx=0;exitDy=52.5;entryX=1;entryY=0.25;entryDx=0;entryDy=0;exitPerimeter=0;" parent="1" source="QVO6qr5AluIkjkF2SAql-2" target="zAgNuWyr5u-YzhFzlj54-3" edge="1"><mxGeometry width="50" height="50" relative="1" as="geometry"><mxPoint x="530" y="100" as="sourcePoint"/><mxPoint x="290" y="105" as="targetPoint"/></mxGeometry></mxCell></root></mxGraphModel></diagram></mxfile>